<?xml version="1.0" encoding="UTF-8"?>
<svg id="Capa_2" data-name="Capa 2" xmlns="http://www.w3.org/2000/svg" xmlns:xlink="http://www.w3.org/1999/xlink" viewBox="0 0 199.64 25.47">
  <defs>
    <style>
      .cls-1 {
        fill: none;
      }

      .cls-1, .cls-2 {
        stroke-width: 0px;
      }

      .cls-3 {
        clip-path: url(#clippath-1);
      }

      .cls-4 {
        clip-path: url(#clippath);
      }

      .cls-2 {
        fill: #fff;
      }
    </style>
    <clipPath id="clippath">
      <rect class="cls-1" width="199.64" height="25.47"/>
    </clipPath>
    <clipPath id="clippath-1">
      <rect class="cls-1" y="0" width="199.64" height="25.47"/>
    </clipPath>
  </defs>
  <g id="Capa_1-2" data-name="Capa 1">
    <g id="Ilustración_2" data-name="Ilustración 2">
      <g class="cls-4">
        <polygon class="cls-2" points="84.76 .48 97.68 .48 97.68 3.16 87.84 3.16 87.84 10.84 97.12 10.84 97.12 13.51 87.84 13.51 87.84 22.29 98.1 22.29 98.1 24.97 84.76 24.97 84.76 .48"/>
        <polygon class="cls-2" points="99.5 .48 102.93 .48 107.48 9.64 112.06 .48 115.28 .48 109.05 12.52 115.7 24.97 112.27 24.97 107.3 15.16 102.23 24.97 99.01 24.97 105.66 12.52 99.5 .48"/>
        <path class="cls-2" d="M122.7.48h4.13l6.72,24.49h-3.22l-1.79-6.72h-7.98l-1.86,6.72h-3.22L122.7.48ZM121.2,15.78h6.72l-3.19-11.83h-.07l-3.47,11.83Z"/>
        <g class="cls-3">
          <path class="cls-2" d="M150.6,16.57c-.28,4.63-2.14,8.88-7.6,8.88-7.11,0-8.05-6.55-8.05-12.73S136.11,0,143.01,0c5.11,0,7.25,2.81,7.39,7.61h-3.22c-.07-2.78-.98-5.15-4.17-5.15-4.27,0-4.83,4.6-4.83,10.26s.56,10.26,4.83,10.26c3.75,0,4.27-3.43,4.38-6.41h3.22Z"/>
          <polygon class="cls-2" points="161.07 24.97 157.99 24.97 157.99 3.16 151.72 3.16 151.72 .48 167.37 .48 167.37 3.16 161.07 3.16 161.07 24.97"/>
          <path class="cls-2" d="M172.65.48h4.13l6.72,24.49h-3.22l-1.79-6.72h-7.98l-1.86,6.72h-3.22L172.65.48ZM171.15,15.78h6.72l-3.19-11.83h-.07l-3.47,11.83Z"/>
          <path class="cls-2" d="M195.86,6.83c0-2.57-.95-4.36-3.89-4.36-2.59,0-4.13,1.37-4.13,3.98,0,6.89,11.8,2.78,11.8,11.73,0,5.66-4.24,7.27-7.77,7.27-5.85,0-7.56-2.95-7.56-8.16h3.08c0,2.74.17,5.69,4.69,5.69,2.45,0,4.34-1.72,4.34-4.32,0-6.93-11.8-2.92-11.8-11.9C184.63,4.49,185.61,0,191.94,0c4.76,0,6.93,2.33,7,6.83h-3.08Z"/>
          <path class="cls-2" d="M6.71,21.88c0,1.85-1.5,3.35-3.35,3.35S0,23.74,0,21.88s1.5-3.36,3.36-3.36,3.35,1.5,3.35,3.36"/>
          <path class="cls-2" d="M29.6,15.61c0,6.63-4,9.86-10.7,9.86s-10.66-3.2-10.66-9.86V.35h5.51v15.26c0,2.68.7,5.33,5.16,5.33,3.93,0,5.19-1.68,5.19-5.33V.35h5.51v15.26Z"/>
          <path class="cls-2" d="M33.88.35h11.78c4.77,0,8,1.51,8,6.08,0,2.41-1.23,4.09-3.4,5.12,3.05.86,4.59,3.16,4.59,6.22,0,4.98-4.31,7.11-8.84,7.11h-12.13V.35ZM39.39,10.28h5.58c1.93,0,3.37-.86,3.37-2.92,0-2.34-1.82-2.82-3.79-2.82h-5.16v5.74ZM39.39,20.69h5.89c2.17,0,4.07-.69,4.07-3.23s-1.61-3.51-3.96-3.51h-6v6.74Z"/>
          <path class="cls-2" d="M64.95.35h5.65l9.36,24.54h-5.72l-1.89-5.46h-9.36l-1.96,5.46h-5.58L64.95.35ZM64.43,15.4h6.49l-3.16-9h-.07l-3.26,9Z"/>
        </g>
      </g>
    </g>
  </g>
</svg>